<?xml version="1.0" standalone="no"?>
<!DOCTYPE svg PUBLIC "-//W3C//DTD SVG 20010904//EN"
 "http://www.w3.org/TR/2001/REC-SVG-20010904/DTD/svg10.dtd">
<svg version="1.0" xmlns="http://www.w3.org/2000/svg"
 width="225.000000pt" height="225.000000pt" viewBox="0 0 225.000000 225.000000"
 preserveAspectRatio="xMidYMid meet">
<metadata>
Created by potrace 1.14, written by Peter Selinger 2001-2017
</metadata>
<g transform="translate(0.000000,225.000000) scale(0.100000,-0.100000)"
fill="#000000" stroke="none">
<path d="M998 2180 c-229 -29 -455 -140 -622 -306 -141 -142 -226 -293 -282
-500 -23 -86 -26 -118 -26 -249 0 -131 3 -163 26 -249 55 -205 141 -357 278
-495 515 -519 1379 -380 1705 274 166 333 140 745 -68 1055 -110 164 -294 318
-463 389 -169 70 -383 102 -548 81z m-82 -461 c65 -20 124 -110 124 -189 0
-78 -66 -168 -139 -190 -15 -5 47 -8 149 -9 125 0 168 3 150 10 -157 63 -178
281 -35 365 35 20 58 26 105 26 82 0 141 -34 175 -102 57 -113 10 -243 -105
-289 -19 -7 -1 -10 76 -10 117 -1 131 -9 136 -81 5 -73 30 -67 144 35 53 47
102 84 108 82 8 -3 12 -103 14 -335 2 -314 1 -332 -16 -332 -10 0 -59 36 -110
80 -62 55 -99 80 -117 80 -25 0 -25 -1 -25 -79 0 -61 -4 -82 -17 -92 -13 -12
-95 -13 -462 -11 -245 2 -453 5 -462 8 -33 9 -37 46 -33 324 2 151 4 278 4
282 0 4 7 14 16 22 12 12 37 16 102 16 l87 1 -36 19 c-136 72 -155 247 -38
342 54 43 121 52 205 27z m-398 -431 c8 -8 12 -51 12 -127 0 -121 -10 -151
-51 -151 -41 0 -49 25 -49 149 0 126 5 141 50 141 14 0 31 -5 38 -12z"/>
</g>
</svg>
