<svg width="1280" height="524" viewBox="0 0 1280 524" fill="none" xmlns="http://www.w3.org/2000/svg">
<rect width="1280" height="524" fill="#073042"/>
<path opacity="0.2" fill-rule="evenodd" clip-rule="evenodd" d="M799.996 241.628C799.996 245.36 799.868 249.061 799.616 252.729V320.875V321.254V322.375V322.754V400.5V402H798.116H720.466H720.087H718.966H718.587H640.938H640.558H639.438H639.058H561.408H561.029H559.908H559.529H481.879H480.379V400.5V322.754V322.375V321.254V320.875V252.709C480.128 249.048 480 245.353 480 241.628C480 237.904 480.128 234.209 480.379 230.547V163.504V163.125H480.379V161.625V83.8786V82.3786H481.879H559.528H561.028V82.3791H561.408H628.885C632.557 82.1277 636.263 82 639.998 82C643.734 82 647.44 82.1277 651.111 82.3791H718.587H718.967H720.087H720.467H798.116H799.616V83.8791V161.625V163.125L799.616 163.504V230.528C799.868 234.196 799.996 237.897 799.996 241.628ZM798.116 163.504V217.076C795.145 197.875 788.744 179.803 779.557 163.504H798.116ZM798.116 230.581C796.436 206.305 789.265 183.537 777.833 163.504H720.466V241.25H798.116V230.581ZM798.116 161.625H778.482C764.526 137.631 744.485 117.598 720.467 103.627V83.8791H798.116V161.625ZM776.744 161.625C763.087 138.441 743.675 119.037 720.467 105.366V161.625H776.744ZM718.587 83.8791V102.551C702.18 93.3031 683.974 86.8614 664.624 83.8791H718.587ZM718.587 104.276C698.435 92.7747 675.51 85.5606 651.059 83.8791H640.937V161.625H718.587V104.276ZM561.408 83.8791H615.373C596.022 86.8615 577.815 93.3035 561.408 102.552V83.8791ZM628.937 83.8791C604.486 85.5607 581.56 92.775 561.408 104.276V161.625H639.058V83.8791H628.937ZM559.528 83.8786V103.628C535.511 117.599 515.47 137.632 501.515 161.625H481.879V83.8786H559.528ZM559.528 105.367C536.321 119.037 516.91 138.441 503.253 161.625H559.528V105.367ZM481.879 163.504H500.439C491.251 179.806 484.85 197.88 481.879 217.085V163.504ZM481.879 243.129V252.657C483.588 277.394 490.999 300.566 502.81 320.875H559.529V243.129H481.879ZM481.879 320.875V266.172C484.918 285.818 491.547 304.282 501.077 320.875H481.879ZM481.879 322.754H502.173C516.098 346.25 535.886 365.876 559.529 379.629V400.5H481.879V322.754ZM561.408 400.5V380.705C580.321 391.366 601.626 398.298 624.319 400.5H561.408ZM561.408 378.98C584.318 392.056 610.812 399.59 639.058 399.754V322.754H561.408V378.98ZM718.587 400.5H655.678C678.37 398.298 699.674 391.366 718.587 380.706V400.5ZM640.938 399.754C669.183 399.591 695.678 392.056 718.587 378.981V322.754H640.938V399.754ZM720.466 400.5V379.629C744.109 365.877 763.899 346.25 777.823 322.754H798.116V400.5H720.466ZM720.466 377.891C743.299 364.441 762.457 345.442 776.076 322.754H720.466V377.891ZM720.466 320.875H777.186C788.995 300.572 796.405 277.406 798.116 252.676V243.129H720.466V320.875ZM798.116 266.18C795.076 285.824 788.448 304.284 778.919 320.875H798.116V266.18ZM503.92 322.754C517.539 345.442 536.696 364.441 559.529 377.89V322.754H503.92ZM502.164 163.504C490.728 183.542 483.556 206.317 481.879 230.6V241.25H559.529V163.504H502.164ZM561.408 163.504H639.058V168.623H605.027H599.387H579.081V241.25H561.408V163.504ZM579.081 243.129H561.408V320.875H639.058V243.129H605.027V315.188H579.081V243.129ZM605.027 241.25H639.058V194.554H605.027V241.25ZM640.938 168.623H678.353H683.994H704.3V241.25H718.587V163.504H640.938V168.623ZM704.3 243.129H718.587V320.875H640.938V243.129H678.353V315.188H704.3V243.129ZM678.353 241.25V194.554H640.938V241.25H678.353Z" fill="white"/>
</svg>
